<?xml version="1.0"?>
<svg xmlns="http://www.w3.org/2000/svg" viewBox="0 0 512 512" width="512" height="512"><g id="Out_line" data-name="Out line"><path d="M256,344a7.9898,7.9898,0,0,0,2.60742-.437l64-22.06885-5.21484-15.126L256,327.5376,48.541,256,194.6084,205.63184l-5.2168-15.126-168,57.93115a8.00024,8.00024,0,0,0,0,15.126l232,80A7.99992,7.99992,0,0,0,256,344Z"/><path d="M490.6084,248.437l-168-57.93115-5.2168,15.126L463.46,256,381.3916,284.29932l5.2168,15.126,104-35.8623a8.00024,8.00024,0,0,0,0-15.126Z"/><path d="M362.73438,296.48145,285.5,268.39624a32.05855,32.05855,0,1,0-10.38281,13.25012L352,309.60352V321.0127A32.0573,32.0573,0,0,0,328,352v96h16V400h8v48h16V400h8v48h16V352a32.0573,32.0573,0,0,0-24-30.9873V304A8.00045,8.00045,0,0,0,362.73438,296.48145ZM256,272a16,16,0,1,1,16-16A16.01833,16.01833,0,0,1,256,272Zm88,96h32v16H344Zm32-16H344a16,16,0,0,1,32,0Z"/><path d="M416,430.97266A24.132,24.132,0,0,1,400.544,453.3999a405.56415,405.56415,0,0,1-289.0879,0A24.132,24.132,0,0,1,96,430.97266V304H80V430.97266a40.21955,40.21955,0,0,0,25.76074,37.37939,421.55187,421.55187,0,0,0,300.47852,0A40.21955,40.21955,0,0,0,432,430.97266V304H416Z"/><path d="M216.64453,189.2666l35.77735,17.88867a8.00049,8.00049,0,0,0,7.15624,0l35.77735-17.88867A87.51977,87.51977,0,0,0,344,110.55713V24a8.0001,8.0001,0,0,0-13.65723-5.65674,48.62327,48.62327,0,0,1-68.68554,0,8.00122,8.00122,0,0,0-11.31446,0,48.62327,48.62327,0,0,1-68.68554,0A8.0001,8.0001,0,0,0,168,24v86.55713A87.51977,87.51977,0,0,0,216.64453,189.2666ZM256,34.69141a64.42873,64.42873,0,0,0,40,13.84491v62.02081a39.78283,39.78283,0,0,1-22.11035,35.77734L256,155.27832l-17.88867-8.94385A39.782,39.782,0,0,1,216,110.55713V48.53632A64.43135,64.43135,0,0,0,256,34.69141Zm-72,5.398a64.19179,64.19179,0,0,0,16,6.44342v64.02435A55.69312,55.69312,0,0,0,230.95605,160.645l21.4668,10.73291a7.99638,7.99638,0,0,0,7.1543,0L281.04492,160.645A55.694,55.694,0,0,0,312,110.55713V46.53278a64.18658,64.18658,0,0,0,16-6.44342v70.46777a71.60779,71.60779,0,0,1-39.80078,64.39892L256,191.05566l-32.19922-16.09961A71.60779,71.60779,0,0,1,184,110.55713Z"/></g></svg>
