<svg width="176" height="127" viewBox="0 0 176 127" fill="none" xmlns="http://www.w3.org/2000/svg">
<circle cx="58.5" cy="68.5" r="53.5" stroke="white" stroke-width="10"/>
<line x1="116" y1="-2.18557e-07" x2="116" y2="117" stroke="white" stroke-width="10"/>
<path fill-rule="evenodd" clip-rule="evenodd" d="M175.651 11.308C160.542 13.3201 146.668 20.7212 136.581 32.1494C126.496 43.5771 120.876 58.2625 120.756 73.5036C120.756 73.5062 120.756 73.5088 120.756 73.5114L110.002 73.4283C110.028 70.0666 110.283 66.7281 110.758 63.4338C112.804 49.2494 118.94 35.8856 128.518 25.0331C138.096 14.1805 150.594 6.43177 164.414 2.63878C167.621 1.75862 170.899 1.09147 174.229 0.647959C174.232 0.647579 174.234 0.6472 174.237 0.64682L175.656 11.3073C175.654 11.3075 175.653 11.3077 175.651 11.308Z" fill="white"/>
</svg>
