<svg fill="#8c8c8c" id="Layer_1" enable-background="new 0 0 512 512" height="512" viewBox="0 0 512 512" width="512" xmlns="http://www.w3.org/2000/svg"><ellipse cx="256" cy="471.936" rx="10" ry="10.016"/><path d="m502 291.648h-30c0-5.531-4.478-10.016-10-10.016h-80c-5.522 0-10 4.485-10 10.016v90.144h-131v-30.048c0-5.531-4.477-10.016-10-10.016h-15v-20.032h106c16.542 0 30-13.48 30-30.048v-160.256c0-16.568-13.458-30.048-30-30.048h-292c-16.542 0-30 13.48-30 30.048v160.256c0 16.568 13.458 30.048 30 30.048h106v20.032h-15c-5.523 0-10 4.485-10 10.016v30.048h-101c-5.523 0-10 4.485-10 10.016v40.064c0 5.531 4.477 10.016 10 10.016h16v60.096c0 5.531 4.477 10.016 10 10.016h40c5.523 0 10-4.485 10-10.016v-20.032h125c5.51 0 10-4.497 10-10.016s-4.49-10.016-10-10.016h-125v-20.032h340v20.032h-125c-5.51 0-10 4.497-10 10.016s4.49 10.016 10 10.016h125v20.032c0 5.531 4.478 10.016 10 10.016h40c5.522 0 10-4.485 10-10.016v-60.096h16c5.522 0 10-4.485 10-10.016v-40.064c0-5.531-4.478-10.016-10-10.016h-30v-21.04c22.795-4.653 40-24.887 40-49.072v-10.016c0-5.531-4.478-10.016-10-10.016zm-472 10.016c-5.514 0-10-4.493-10-10.016v-160.256c0-5.522 4.486-10.016 10-10.016h292c5.514 0 10 4.494 10 10.016v160.256c0 5.522-4.486 10.016-10 10.016h-106v-60.096c0-22.091-17.944-40.064-40-40.064s-40 17.973-40 40.064v60.096zm126-60.096c0-11.046 8.972-20.032 20-20.032s20 8.986 20 20.032v100.16h-40zm-25 120.192h90v20.032h-90zm-65 130.208h-20v-50.08h20zm400 0h-20v-50.08h20zm26-70.112h-472v-20.032h472zm-100-40.064v-80.128h60v80.128zm80-41.78v-28.332h20c0 13.058-8.359 24.198-20 28.332z"/><path d="m460.572 195.69c6.001-7.72 4.875-20.636.603-28.766 0 0-5.333-10.149-5.333-10.149-2.573-4.894-8.62-6.774-13.507-4.199-4.888 2.576-6.765 8.634-4.192 13.528l5.333 10.149c1.32 2.512 1.503 5.491.531 8.136 0 0-10.725 13.778-10.729 13.784-6.068 7.795-4.609 20.966-.131 29.04l5.104 9.203c1.827 3.295 5.236 5.154 8.75 5.154 1.644 0 3.31-.407 4.848-1.263 4.828-2.686 6.567-8.784 3.885-13.619l-5.104-9.203c-1.373-2.476-1.624-5.435-.723-8.094z"/><path d="m388.252 256.448c2.643 4.764 8.85 6.533 13.598 3.891 4.828-2.686 6.567-8.784 3.885-13.619l-5.104-9.203c-1.373-2.476-1.624-5.435-.723-8.094 0 0 10.659-13.692 10.665-13.701 6.006-7.715 4.879-20.629.604-28.766l-5.333-10.149c-2.573-4.895-8.62-6.775-13.507-4.199-4.888 2.576-6.765 8.634-4.192 13.528l5.333 10.149c1.32 2.512 1.503 5.491.531 8.136 0 0-10.727 13.781-10.729 13.784-6.068 7.795-4.606 20.972-.131 29.04-.002 0 5.096 9.191 5.103 9.203z"/><path d="m106 261.6h-10c-5.51 0-10 4.497-10 10.016s4.49 10.016 10 10.016h10c5.51 0 10-4.497 10-10.016s-4.49-10.016-10-10.016z"/><ellipse cx="51" cy="271.616" rx="10" ry="10.016"/><path d="m447 129.389c35.841 0 65-29.206 65-65.104 0-31.773-22.667-58.748-53.898-64.14-3.708-.639-7.451.855-9.703 3.867-2.252 3.013-2.628 7.035-.974 10.414 3.036 6.2 4.575 12.865 4.575 19.811 0 24.853-20.187 45.072-45 45.072-2.526 0-5.119-.226-7.704-.673-3.702-.637-7.45.854-9.703 3.867s-2.629 7.035-.975 10.414c11.017 22.497 33.387 36.472 58.382 36.472zm25-95.152c0-2.617-.151-5.209-.454-7.767 12.45 8.086 20.454 22.103 20.454 37.815 0 24.853-20.187 45.072-45 45.072-11.064 0-21.387-3.957-29.387-10.884 30.81-5.09 54.387-31.957 54.387-64.236z"/></svg>