<svg width="15" height="15" viewBox="0 0 15 15" fill="none" xmlns="http://www.w3.org/2000/svg">
<g clip-path="url(#clip0)">
<path d="M3.33309 8.0853L10.0083 14.7604C10.1627 14.9149 10.3688 15 10.5885 15C10.8083 15 11.0144 14.9149 11.1688 14.7604L11.6603 14.2689C11.9802 13.9487 11.9802 13.4282 11.6603 13.1084L6.05502 7.50311L11.6666 1.89157C11.8209 1.73706 11.9062 1.53108 11.9062 1.31145C11.9062 1.09158 11.8209 0.885602 11.6666 0.730969L11.175 0.239631C11.0205 0.0851204 10.8145 -4.52261e-07 10.5947 -4.71473e-07C10.375 -4.90685e-07 10.1689 0.0851203 10.0145 0.239631L3.33309 6.9208C3.17833 7.0758 3.09333 7.28274 3.09382 7.50274C3.09333 7.72359 3.17833 7.93042 3.33309 8.0853Z" fill="white"/>
</g>
<defs>
<clipPath id="clip0">
<rect x="15" y="15" width="15" height="15" transform="rotate(-180 15 15)" fill="white"/>
</clipPath>
</defs>
</svg>
