<svg fill="white" enable-background="new 0 0 59.997 60" height="512" viewBox="0 0 59.997 60" width="512" xmlns="http://www.w3.org/2000/svg"><path d="m11.192 24.919c-.265 0-.52-.105-.707-.293l-4.243-4.243c-.391-.391-.391-1.023 0-1.414l12.728-12.727c.188-.188.442-.293.707-.293.265 0 .52.105.707.293l4.242 4.243c.391.391.391 1.023 0 1.414l-12.727 12.727c-.188.188-.442.293-.707.293zm-2.829-5.242 2.828 2.829 11.313-11.314-2.828-2.829z"/><path d="m6.949 20.677c-.256 0-.512-.098-.707-.293l-5.156-5.155c-.7-.701-1.086-1.632-1.086-2.623s.386-1.922 1.086-2.623l8.897-8.897c1.446-1.446 3.799-1.446 5.245 0l5.156 5.155c.188.188.293.442.293.707s-.105.52-.293.707l-12.728 12.729c-.195.195-.451.293-.707.293zm5.657-18.676c-.438 0-.875.167-1.208.5l-8.897 8.897c-.323.322-.501.751-.501 1.208s.178.886.501 1.208l4.448 4.448 11.314-11.313-4.448-4.449c-.334-.333-.771-.499-1.209-.499z"/><path d="m42.696 47.939c-.256 0-.512-.098-.707-.293l-6.364-6.364c-.391-.391-.391-1.023 0-1.414.39-.391 1.023-.391 1.414 0l6.364 6.364c.391.391.391 1.023 0 1.414-.195.195-.451.293-.707.293z"/><path d="m58.96 59.96c-.119 0-.239-.021-.354-.065l-7.177-2.723c-.317-.121-.552-.394-.623-.725-.071-.332.031-.677.271-.917l4.455-4.455c.24-.24.585-.342.917-.271s.605.306.725.623l2.722 7.177c.139.368.05.783-.228 1.062-.192.192-.448.294-.708.294zm-5.376-4.109 3.653 1.386-1.386-3.653z"/><path d="m58.96 59.96c-.119 0-.239-.021-.354-.065l-20.271-7.689c-.317-.121-.552-.394-.623-.725-.071-.332.031-.677.271-.917l12.582-12.582c.24-.24.585-.342.917-.271s.605.306.725.623l7.689 20.271c.139.368.05.783-.228 1.062-.192.191-.448.293-.708.293zm-18.47-9.076 16.747 6.353-6.353-16.747z"/><path d="m8.465 60c-2.26 0-4.375-.875-5.982-2.483-1.678-1.678-2.558-3.909-2.478-6.28s1.109-4.538 2.897-6.099l32.281-27.738c1.189-1.029 1.759-2.628 1.521-4.274-.45-3.124.373-5.759 2.447-7.833l3.535-3.536c1.134-1.133 2.64-1.757 4.243-1.757s3.109.624 4.242 1.757c.391.391.391 1.023 0 1.414l-6.364 6.364 5.657 5.657 6.364-6.364c.39-.391 1.023-.391 1.414 0 2.339 2.339 2.339 6.146 0 8.485l-3.536 3.536c-2.074 2.075-4.71 2.896-7.833 2.447-1.646-.236-3.244.333-4.276 1.524l-27.73 32.273c-1.566 1.793-3.732 2.822-6.104 2.902-.099.004-.199.005-.298.005zm38.464-58c-1.069 0-2.073.416-2.829 1.171l-3.535 3.536c-1.627 1.626-2.242 3.633-1.882 6.134.335 2.324-.485 4.594-2.195 6.074l-32.277 27.735c-1.36 1.188-2.146 2.842-2.207 4.655-.061 1.812.611 3.516 1.893 4.798s2.988 1.958 4.799 1.893c1.812-.062 3.467-.848 4.659-2.213l27.729-32.269c1.483-1.712 3.753-2.532 6.076-2.197 2.499.36 4.506-.256 6.133-1.882l3.536-3.536c1.315-1.315 1.521-3.327.617-4.86l-6.275 6.274c-.39.391-1.023.391-1.414 0l-7.071-7.071c-.188-.188-.293-.442-.293-.707s.105-.52.293-.707l6.275-6.276c-.609-.36-1.306-.552-2.032-.552z"/><path d="m8.14 55.858c-1.024 0-2.049-.39-2.828-1.169-.756-.755-1.172-1.76-1.172-2.829 0-1.068.416-2.073 1.172-2.828 1.56-1.56 4.097-1.56 5.657 0 .756.755 1.172 1.76 1.172 2.828 0 1.069-.416 2.073-1.172 2.829-.781.78-1.805 1.169-2.829 1.169zm0-5.996c-.512 0-1.024.195-1.414.584-.378.378-.586.88-.586 1.414 0 .535.208 1.037.586 1.415.78.779 2.049.779 2.829 0 .378-.378.586-.88.586-1.415 0-.534-.208-1.036-.586-1.414-.391-.389-.903-.584-1.415-.584z"/><path d="m32 29c-.256 0-.512-.098-.707-.293-.391-.391-.391-1.023 0-1.414l7-7c.39-.391 1.024-.391 1.414 0 .391.391.391 1.023 0 1.414l-7 7c-.195.195-.451.293-.707.293z"/><path d="m42 19c-.256 0-.512-.098-.707-.293-.391-.391-.391-1.023 0-1.414l2-2c.39-.391 1.024-.391 1.414 0 .391.391.391 1.023 0 1.414l-2 2c-.195.195-.451.293-.707.293z"/><path d="m14.504 50.739c-.056 0-.113-.005-.17-.015-.335-.058-.617-.281-.75-.593-.103-.24-.198-.497-.295-.759-.246-.663-.499-1.347-.906-1.754-.407-.406-1.092-.66-1.754-.906-.262-.097-.519-.193-.76-.295-.312-.133-.536-.416-.594-.75s.059-.675.309-.905l17.678-16.263c.395-.362 1.005-.35 1.384.029l2.828 2.828c.379.379.392.99.029 1.384l-16.264 17.677c-.19.207-.458.322-.735.322zm-2.384-5.593c.591.25 1.185.566 1.677 1.058.492.492.809 1.086 1.059 1.677l14.527-15.79-1.472-1.472z"/><path d="m19.482 33.21c-.257 0-.513-.098-.707-.293l-8.29-8.291c-.391-.391-.391-1.023 0-1.414l12.728-12.728c.375-.375 1.039-.375 1.414 0l9.253 9.253c.197.197.303.467.292.745-.01.278-.136.54-.347.721l-13.691 11.765c-.188.162-.42.242-.652.242zm-6.876-9.291 6.927 6.928 12.17-10.458-7.784-7.784z"/><path d="m58.96 59.96c-.119 0-.239-.021-.354-.065l-20.506-7.778c-.132-.05-.252-.128-.352-.228l-10.665-10.664c-.37-.37-.392-.962-.052-1.359l11.765-13.691c.181-.211.443-.337.721-.348.283-.016.548.096.745.292l11.627 11.626c.1.1.178.22.228.353l7.778 20.506c.139.368.05.783-.228 1.062-.191.192-.447.294-.707.294zm-19.951-9.637 18.228 6.914-6.914-18.228-10.712-10.712-10.457 12.17z"/></svg>