<svg id="Capa_1" enable-background="new 0 0 512 512" height="512" viewBox="0 0 512 512" width="512" xmlns="http://www.w3.org/2000/svg"><g><path d="m364.786 262.584v-66.292l22.935 12.147 14.034-26.499-61.579-32.614v-42.613h-29.985v26.732l-52.155-27.623-22.671 12.702v-56.281c0-34.026-27.681-61.707-61.706-61.707s-61.706 27.682-61.706 61.707v39.367c-9.644-6.246-21.123-9.89-33.443-9.89-34.025 0-61.706 27.682-61.706 61.706v101.139c0 23.122 12.791 43.303 31.661 53.87-15.181 9.996-48.465 37.816-48.465 37.816l.003 165.749h511.993l.004-164.916-4.984-4.469c-41.378-37.1-89.964-64.219-142.23-80.031zm117.227 136.234c-.336-.339-.668-.683-1.005-1.021-60.222-60.223-140.291-93.388-225.458-93.388-57.99 0-113.609 15.39-162.216 44.215v-31.972c49.578-26.245 105.161-40.229 162.216-40.229 83.375 0 163.525 29.826 226.464 84.134zm-223.572-258.85 76.36 40.443v74.441c-19.322-4.147-39.035-6.781-58.978-7.85v-35.906h-29.985v35.477c-19.35.496-38.518 2.475-57.353 5.873v-29.171c26.886-6.657 46.881-30.98 46.881-59.894v-10.485zm-116.503-77.725c0-17.492 14.23-31.722 31.721-31.722s31.721 14.23 31.721 31.722v101.138c0 17.49-14.23 31.721-31.721 31.721s-31.721-14.23-31.721-31.721zm-95.149 91.184c0-17.49 14.23-31.721 31.721-31.721s31.721 14.23 31.721 31.721v101.139c0 17.491-14.23 31.721-31.721 31.721-17.491 0-31.721-14.23-31.721-31.721zm93.427 101.14v-39.368c5.55 3.594 11.703 6.331 18.282 8v35.942c-6.433 1.712-12.817 3.587-19.142 5.636.556-3.324.86-6.732.86-10.21zm-76.866 79.974v34.267c-11.633 8.825-22.753 18.486-33.257 28.99-.036.036-.071.073-.107.109l-.001-38.123c10.651-9.127 21.802-17.538 33.365-25.243zm335.675 145.241c-38.324-38.323-89.278-59.429-143.474-59.429-53.961 0-104.701 20.928-142.967 58.936l-.506-.506c-1.06 1.06-2.112 2.142-3.156 3.232h-36.05c5.986-7.708 12.467-15.072 19.416-22.021 43.609-43.61 101.59-67.626 163.262-67.626s119.654 24.017 163.263 67.625c6.95 6.95 13.431 14.314 19.418 22.022h-37.027c-.725-.748-1.446-1.499-2.179-2.233zm-43.653 2.233h-199.64c28.987-20.579 63.549-31.676 99.819-31.676s70.833 11.096 99.821 31.676zm119.599 0c-10.032-15.516-21.759-30.029-34.955-43.225-49.273-49.273-114.785-76.408-184.466-76.408-69.682 0-135.193 27.136-184.465 76.409-13.196 13.196-24.926 27.709-34.958 43.224h-6.14l-.001-39.25c6.641-8.262 13.782-16.237 21.309-23.764 54.559-54.558 127.098-84.605 204.255-84.605s149.697 30.047 204.255 84.605c7.864 7.865 15.321 16.23 22.206 24.884l-.001 38.13z"/><path d="m457.9 108.2c29.83 0 54.1-24.27 54.1-54.101 0-29.83-24.27-54.099-54.1-54.099-29.831 0-54.1 24.269-54.1 54.1s24.269 54.1 54.1 54.1zm0-78.215c13.296 0 24.114 10.818 24.114 24.114 0 13.297-10.818 24.115-24.114 24.115-13.297 0-24.115-10.818-24.115-24.115 0-13.296 10.818-24.114 24.115-24.114z"/></g></svg>