<svg width="175" height="118" viewBox="0 0 175 118" fill="none" xmlns="http://www.w3.org/2000/svg">
<circle cx="58.5" cy="59.5" r="53.5" stroke="white" stroke-width="10"/>
<line x1="116" y1="1" x2="116" y2="118" stroke="white" stroke-width="10"/>
<path fill-rule="evenodd" clip-rule="evenodd" d="M174.651 11.308C159.542 13.3202 145.668 20.7213 135.581 32.1495C125.496 43.5771 119.876 58.2625 119.756 73.5036C119.756 73.5062 119.756 73.5088 119.756 73.5114L109.002 73.4283C109.028 70.0667 109.283 66.7281 109.758 63.4338C111.804 49.2494 117.94 35.8857 127.518 25.0331C137.096 14.1805 149.594 6.4318 163.414 2.63881C166.621 1.75865 169.899 1.0915 173.229 0.64799C173.232 0.64761 173.234 0.64723 173.237 0.646851L174.656 11.3073C174.654 11.3075 174.653 11.3078 174.651 11.308Z" fill="white"/>
</svg>
